<svg width="693" height="416" viewBox="0 0 693 416" fill="none" xmlns="http://www.w3.org/2000/svg">
<rect width="693" height="416" fill="white"/>
<rect x="124" y="78" width="68" height="68" fill="black"/>
<rect x="124" y="165" width="68" height="68" fill="black"/>
<rect x="124" y="252" width="68" height="68" fill="black"/>
<rect x="204" y="78" width="68" height="68" fill="black"/>
<rect x="204" y="165" width="68" height="68" fill="black"/>
<rect x="204" y="252" width="68" height="68" fill="black"/>
<rect x="284" y="78" width="68" height="68" fill="black"/>
<rect x="284" y="165" width="68" height="68" fill="black"/>
<rect x="284" y="252" width="68" height="68" fill="black"/>
<rect x="364" y="78" width="68" height="68" fill="black"/>
<rect x="364" y="165" width="68" height="68" fill="black"/>
<rect x="364" y="252" width="68" height="68" fill="black"/>
<rect x="444" y="78" width="68" height="68" fill="black"/>
<rect x="444" y="165" width="68" height="68" fill="black"/>
<rect x="444" y="252" width="68" height="68" fill="black"/>
<circle cx="237.5" cy="155.5" r="8" stroke="#00E0FF" stroke-width="3"/>
<circle cx="438.5" cy="155.5" r="8" stroke="#00E0FF" stroke-width="3"/>
<circle cx="256.5" cy="155.5" r="8" stroke="#FF0000" stroke-width="3"/>
<circle cx="457.5" cy="155.5" r="8" stroke="#FF0000" stroke-width="3"/>
<circle cx="218.5" cy="155.5" r="8" stroke="#FF0000" stroke-width="3"/>
<circle cx="419.5" cy="155.5" r="8" stroke="#FF0000" stroke-width="3"/>
<circle cx="438.5" cy="135.5" r="8" stroke="#FF0000" stroke-width="3"/>
<circle cx="438.5" cy="174.5" r="8" stroke="#FF0000" stroke-width="3"/>
<path d="M33.7614 45V30.4545H42.5398V32.017H35.5227V36.9318H42.0852V38.4943H35.5227V43.4375H42.6534V45H33.7614ZM46.7372 34.0909L49.3509 38.5511L51.9645 34.0909H53.8963L50.3736 39.5455L53.8963 45H51.9645L49.3509 40.767L46.7372 45H44.8054L48.2713 39.5455L44.8054 34.0909H46.7372ZM60.2706 45.2273C59.2479 45.2273 58.3672 44.9858 57.6286 44.5028C56.8899 44.0199 56.3217 43.3546 55.924 42.5071C55.5263 41.6596 55.3274 40.6913 55.3274 39.6023C55.3274 38.4943 55.531 37.5166 55.9382 36.669C56.3501 35.8168 56.9231 35.1515 57.657 34.6733C58.3956 34.1903 59.2573 33.9489 60.2422 33.9489C61.0092 33.9489 61.7005 34.0909 62.3161 34.375C62.9316 34.6591 63.4358 35.0568 63.8288 35.5682C64.2218 36.0795 64.4657 36.6761 64.5604 37.358H62.8842C62.7564 36.8608 62.4723 36.4205 62.032 36.0369C61.5964 35.6487 61.0092 35.4545 60.2706 35.4545C59.6172 35.4545 59.0443 35.625 58.5518 35.9659C58.0642 36.3021 57.683 36.7779 57.4084 37.3935C57.1385 38.0043 57.0036 38.7216 57.0036 39.5455C57.0036 40.3883 57.1361 41.1222 57.4013 41.7472C57.6712 42.3722 58.05 42.8575 58.5376 43.2031C59.0301 43.5488 59.6077 43.7216 60.2706 43.7216C60.7062 43.7216 61.1016 43.6458 61.4567 43.4943C61.8118 43.3428 62.1125 43.125 62.3587 42.8409C62.6049 42.5568 62.7801 42.2159 62.8842 41.8182H64.5604C64.4657 42.4621 64.2313 43.0421 63.8572 43.5582C63.4879 44.0696 62.9979 44.4768 62.3871 44.7798C61.781 45.0781 61.0755 45.2273 60.2706 45.2273ZM67.0107 45V34.0909H68.6868V45H67.0107ZM67.8629 32.2727C67.5362 32.2727 67.2545 32.1615 67.0178 31.9389C66.7857 31.7164 66.6697 31.4489 66.6697 31.1364C66.6697 30.8239 66.7857 30.5563 67.0178 30.3338C67.2545 30.1113 67.5362 30 67.8629 30C68.1896 30 68.469 30.1113 68.701 30.3338C68.9377 30.5563 69.0561 30.8239 69.0561 31.1364C69.0561 31.4489 68.9377 31.7164 68.701 31.9389C68.469 32.1615 68.1896 32.2727 67.8629 32.2727ZM76.5011 34.0909V35.5114H70.8477V34.0909H76.5011ZM72.4954 31.4773H74.1715V41.875C74.1715 42.3485 74.2402 42.7036 74.3775 42.9403C74.5195 43.1723 74.6995 43.3286 74.9173 43.4091C75.1398 43.4848 75.3742 43.5227 75.6204 43.5227C75.805 43.5227 75.9566 43.5133 76.0749 43.4943C76.1933 43.4706 76.288 43.4517 76.359 43.4375L76.6999 44.9432C76.5863 44.9858 76.4277 45.0284 76.2241 45.071C76.0205 45.1184 75.7624 45.142 75.4499 45.142C74.9764 45.142 74.5124 45.0402 74.0579 44.8366C73.6081 44.633 73.234 44.3229 72.9357 43.9062C72.6422 43.4896 72.4954 42.964 72.4954 42.3295V31.4773ZM82.2326 45.2557C81.5413 45.2557 80.9139 45.1255 80.3505 44.8651C79.7871 44.5999 79.3396 44.2188 79.0082 43.7216C78.6767 43.2197 78.511 42.6136 78.511 41.9034C78.511 41.2784 78.6341 40.7718 78.8803 40.3835C79.1265 39.9905 79.4556 39.6828 79.8675 39.4602C80.2795 39.2377 80.734 39.072 81.2312 38.9631C81.7331 38.8494 82.2373 38.7595 82.744 38.6932C83.4068 38.608 83.9442 38.544 84.3562 38.5014C84.7728 38.4541 85.0759 38.3759 85.2653 38.267C85.4594 38.1581 85.5565 37.9687 85.5565 37.6989V37.642C85.5565 36.9413 85.3647 36.3968 84.9812 36.0085C84.6024 35.6203 84.0271 35.4261 83.2553 35.4261C82.4551 35.4261 81.8278 35.6013 81.3732 35.9517C80.9187 36.3021 80.5991 36.6761 80.4144 37.0739L78.8235 36.5057C79.1076 35.8428 79.4864 35.3267 79.9599 34.9574C80.4381 34.5833 80.9589 34.3229 81.5224 34.1761C82.0906 34.0246 82.6493 33.9489 83.1985 33.9489C83.5489 33.9489 83.9513 33.9915 84.4059 34.0767C84.8652 34.1572 85.3079 34.3253 85.734 34.581C86.1649 34.8366 86.5224 35.2225 86.8065 35.7386C87.0906 36.2547 87.2326 36.946 87.2326 37.8125V45H85.5565V43.5227H85.4712C85.3576 43.7595 85.1682 44.0128 84.9031 44.2827C84.6379 44.5526 84.2852 44.7822 83.8448 44.9716C83.4045 45.161 82.8671 45.2557 82.2326 45.2557ZM82.4883 43.75C83.1512 43.75 83.7099 43.6198 84.1644 43.3594C84.6237 43.099 84.9693 42.7628 85.2013 42.3509C85.4381 41.9389 85.5565 41.5057 85.5565 41.0511V39.517C85.4854 39.6023 85.3292 39.6804 85.0877 39.7514C84.851 39.8177 84.5763 39.8769 84.2638 39.929C83.9561 39.9763 83.6554 40.0189 83.3619 40.0568C83.073 40.09 82.8387 40.1184 82.6587 40.142C82.2231 40.1989 81.8159 40.2912 81.4371 40.419C81.0631 40.5421 80.7601 40.7292 80.5281 40.9801C80.3008 41.2263 80.1871 41.5625 80.1871 41.9886C80.1871 42.571 80.4026 43.0114 80.8335 43.3097C81.2691 43.6032 81.8207 43.75 82.4883 43.75ZM95.0362 34.0909V35.5114H89.3828V34.0909H95.0362ZM91.0305 31.4773H92.7067V41.875C92.7067 42.3485 92.7753 42.7036 92.9126 42.9403C93.0547 43.1723 93.2346 43.3286 93.4524 43.4091C93.675 43.4848 93.9093 43.5227 94.1555 43.5227C94.3402 43.5227 94.4917 43.5133 94.6101 43.4943C94.7285 43.4706 94.8232 43.4517 94.8942 43.4375L95.2351 44.9432C95.1214 44.9858 94.9628 45.0284 94.7592 45.071C94.5556 45.1184 94.2976 45.142 93.9851 45.142C93.5116 45.142 93.0476 45.0402 92.593 44.8366C92.1432 44.633 91.7692 44.3229 91.4709 43.9062C91.1773 43.4896 91.0305 42.964 91.0305 42.3295V31.4773ZM101.872 45.2273C100.887 45.2273 100.023 44.9929 99.2798 44.5241C98.5412 44.0554 97.9635 43.3996 97.5469 42.5568C97.1349 41.714 96.929 40.7292 96.929 39.6023C96.929 38.4659 97.1349 37.474 97.5469 36.6264C97.9635 35.7789 98.5412 35.1207 99.2798 34.652C100.023 34.1832 100.887 33.9489 101.872 33.9489C102.857 33.9489 103.719 34.1832 104.457 34.652C105.201 35.1207 105.778 35.7789 106.19 36.6264C106.607 37.474 106.815 38.4659 106.815 39.6023C106.815 40.7292 106.607 41.714 106.19 42.5568C105.778 43.3996 105.201 44.0554 104.457 44.5241C103.719 44.9929 102.857 45.2273 101.872 45.2273ZM101.872 43.7216C102.62 43.7216 103.236 43.5298 103.719 43.1463C104.202 42.7628 104.559 42.2585 104.791 41.6335C105.023 41.0085 105.139 40.3314 105.139 39.6023C105.139 38.8731 105.023 38.1937 104.791 37.5639C104.559 36.9342 104.202 36.4252 103.719 36.0369C103.236 35.6487 102.62 35.4545 101.872 35.4545C101.124 35.4545 100.509 35.6487 100.026 36.0369C99.5426 36.4252 99.1851 36.9342 98.9531 37.5639C98.7211 38.1937 98.6051 38.8731 98.6051 39.6023C98.6051 40.3314 98.7211 41.0085 98.9531 41.6335C99.1851 42.2585 99.5426 42.7628 100.026 43.1463C100.509 43.5298 101.124 43.7216 101.872 43.7216ZM109.374 45V34.0909H110.993V35.7386H111.107C111.306 35.1989 111.666 34.7609 112.186 34.4247C112.707 34.0885 113.294 33.9205 113.948 33.9205C114.071 33.9205 114.225 33.9228 114.409 33.9276C114.594 33.9323 114.734 33.9394 114.828 33.9489V35.6534C114.772 35.6392 114.641 35.6179 114.438 35.5895C114.239 35.5563 114.028 35.5398 113.806 35.5398C113.275 35.5398 112.802 35.651 112.385 35.8736C111.973 36.0914 111.647 36.3944 111.405 36.7827C111.168 37.1662 111.05 37.6042 111.05 38.0966V45H109.374ZM118.227 49.0909C117.943 49.0909 117.69 49.0672 117.467 49.0199C117.244 48.9773 117.091 48.9347 117.005 48.892L117.431 47.4148C117.839 47.5189 118.199 47.5568 118.511 47.5284C118.824 47.5 119.1 47.3603 119.342 47.1094C119.588 46.8632 119.813 46.4631 120.017 45.9091L120.329 45.0568L116.295 34.0909H118.113L121.125 42.7841H121.238L124.25 34.0909H126.068L121.437 46.5909C121.229 47.1544 120.971 47.6207 120.663 47.9901C120.355 48.3641 119.998 48.6411 119.591 48.821C119.188 49.0009 118.734 49.0909 118.227 49.0909Z" fill="black"/>
<path d="M13.5227 237.455V252H11.7614V237.455H13.5227ZM18.5032 245.438V252H16.8271V241.091H18.4464V242.795H18.5884C18.8441 242.241 19.2324 241.796 19.7532 241.46C20.274 241.119 20.9464 240.949 21.7702 240.949C22.5089 240.949 23.1552 241.1 23.7092 241.403C24.2631 241.702 24.694 242.156 25.0018 242.767C25.3095 243.373 25.4634 244.14 25.4634 245.068V252H23.7873V245.182C23.7873 244.325 23.5647 243.657 23.1197 243.179C22.6746 242.696 22.0638 242.455 21.2873 242.455C20.7522 242.455 20.274 242.571 19.8526 242.803C19.436 243.035 19.1069 243.373 18.8654 243.818C18.6239 244.263 18.5032 244.803 18.5032 245.438ZM30.2024 245.438V252H28.5263V237.455H30.2024V242.795H30.3445C30.6001 242.232 30.9837 241.785 31.495 241.453C32.0111 241.117 32.6977 240.949 33.5547 240.949C34.2981 240.949 34.9491 241.098 35.5078 241.396C36.0665 241.69 36.4998 242.142 36.8075 242.753C37.12 243.359 37.2763 244.131 37.2763 245.068V252H35.6001V245.182C35.6001 244.315 35.3752 243.645 34.9254 243.172C34.4804 242.694 33.8625 242.455 33.0717 242.455C32.5225 242.455 32.0301 242.571 31.5945 242.803C31.1636 243.035 30.8227 243.373 30.5717 243.818C30.3255 244.263 30.2024 244.803 30.2024 245.438ZM40.3427 252V241.091H42.0188V252H40.3427ZM41.195 239.273C40.8683 239.273 40.5865 239.161 40.3498 238.939C40.1178 238.716 40.0018 238.449 40.0018 238.136C40.0018 237.824 40.1178 237.556 40.3498 237.334C40.5865 237.111 40.8683 237 41.195 237C41.5217 237 41.801 237.111 42.033 237.334C42.2698 237.556 42.3881 237.824 42.3881 238.136C42.3881 238.449 42.2698 238.716 42.033 238.939C41.801 239.161 41.5217 239.273 41.195 239.273ZM45.3161 252V237.455H46.9922V242.824H47.1342C47.2573 242.634 47.4278 242.393 47.6456 242.099C47.8681 241.801 48.1854 241.536 48.5973 241.304C49.014 241.067 49.5774 240.949 50.2876 240.949C51.2062 240.949 52.0159 241.179 52.7166 241.638C53.4174 242.097 53.9643 242.748 54.3572 243.591C54.7502 244.434 54.9467 245.428 54.9467 246.574C54.9467 247.729 54.7502 248.731 54.3572 249.578C53.9643 250.421 53.4197 251.074 52.7237 251.538C52.0277 251.998 51.2251 252.227 50.3161 252.227C49.6153 252.227 49.0542 252.111 48.6328 251.879C48.2114 251.643 47.8871 251.375 47.6598 251.077C47.4325 250.774 47.2573 250.523 47.1342 250.324H46.9354V252H45.3161ZM46.9638 246.545C46.9638 247.369 47.0845 248.096 47.326 248.726C47.5675 249.351 47.9202 249.841 48.3842 250.196C48.8482 250.546 49.4164 250.722 50.0888 250.722C50.7895 250.722 51.3743 250.537 51.843 250.168C52.3165 249.794 52.6716 249.292 52.9084 248.662C53.1499 248.027 53.2706 247.322 53.2706 246.545C53.2706 245.778 53.1522 245.087 52.9155 244.472C52.6835 243.851 52.3307 243.361 51.8572 243.001C51.3885 242.637 50.799 242.455 50.0888 242.455C49.407 242.455 48.834 242.627 48.37 242.973C47.906 243.314 47.5556 243.792 47.3189 244.408C47.0821 245.018 46.9638 245.731 46.9638 246.545ZM57.5107 252V241.091H59.1868V252H57.5107ZM58.3629 239.273C58.0362 239.273 57.7545 239.161 57.5178 238.939C57.2857 238.716 57.1697 238.449 57.1697 238.136C57.1697 237.824 57.2857 237.556 57.5178 237.334C57.7545 237.111 58.0362 237 58.3629 237C58.6896 237 58.969 237.111 59.201 237.334C59.4377 237.556 59.5561 237.824 59.5561 238.136C59.5561 238.449 59.4377 238.716 59.201 238.939C58.969 239.161 58.6896 239.273 58.3629 239.273ZM67.0011 241.091V242.511H61.3477V241.091H67.0011ZM62.9954 238.477H64.6715V248.875C64.6715 249.348 64.7402 249.704 64.8775 249.94C65.0195 250.172 65.1995 250.329 65.4173 250.409C65.6398 250.485 65.8742 250.523 66.1204 250.523C66.305 250.523 66.4566 250.513 66.5749 250.494C66.6933 250.471 66.788 250.452 66.859 250.438L67.1999 251.943C67.0863 251.986 66.9277 252.028 66.7241 252.071C66.5205 252.118 66.2624 252.142 65.9499 252.142C65.4764 252.142 65.0124 252.04 64.5579 251.837C64.1081 251.633 63.734 251.323 63.4357 250.906C63.1422 250.49 62.9954 249.964 62.9954 249.33V238.477ZM73.837 252.227C72.8522 252.227 71.988 251.993 71.2447 251.524C70.506 251.055 69.9284 250.4 69.5117 249.557C69.0998 248.714 68.8938 247.729 68.8938 246.602C68.8938 245.466 69.0998 244.474 69.5117 243.626C69.9284 242.779 70.506 242.121 71.2447 241.652C71.988 241.183 72.8522 240.949 73.837 240.949C74.8219 240.949 75.6836 241.183 76.4222 241.652C77.1656 242.121 77.7433 242.779 78.1552 243.626C78.5719 244.474 78.7802 245.466 78.7802 246.602C78.7802 247.729 78.5719 248.714 78.1552 249.557C77.7433 250.4 77.1656 251.055 76.4222 251.524C75.6836 251.993 74.8219 252.227 73.837 252.227ZM73.837 250.722C74.5851 250.722 75.2006 250.53 75.6836 250.146C76.1665 249.763 76.524 249.259 76.756 248.634C76.988 248.009 77.104 247.331 77.104 246.602C77.104 245.873 76.988 245.194 76.756 244.564C76.524 243.934 76.1665 243.425 75.6836 243.037C75.2006 242.649 74.5851 242.455 73.837 242.455C73.0889 242.455 72.4734 242.649 71.9904 243.037C71.5075 243.425 71.15 243.934 70.918 244.564C70.686 245.194 70.57 245.873 70.57 246.602C70.57 247.331 70.686 248.009 70.918 248.634C71.15 249.259 71.5075 249.763 71.9904 250.146C72.4734 250.53 73.0889 250.722 73.837 250.722ZM81.3388 252V241.091H82.9581V242.739H83.0717C83.2706 242.199 83.6304 241.761 84.1513 241.425C84.6721 241.089 85.2592 240.92 85.9126 240.92C86.0357 240.92 86.1896 240.923 86.3743 240.928C86.5589 240.932 86.6986 240.939 86.7933 240.949V242.653C86.7365 242.639 86.6063 242.618 86.4027 242.589C86.2038 242.556 85.9931 242.54 85.7706 242.54C85.2403 242.54 84.7668 242.651 84.3501 242.874C83.9382 243.091 83.6115 243.394 83.37 243.783C83.1333 244.166 83.0149 244.604 83.0149 245.097V252H81.3388ZM90.1918 256.091C89.9077 256.091 89.6544 256.067 89.4318 256.02C89.2093 255.977 89.0554 255.935 88.9702 255.892L89.3963 254.415C89.8035 254.519 90.1634 254.557 90.4759 254.528C90.7884 254.5 91.0653 254.36 91.3068 254.109C91.553 253.863 91.7779 253.463 91.9815 252.909L92.294 252.057L88.2599 241.091H90.0781L93.0895 249.784H93.2031L96.2145 241.091H98.0327L93.402 253.591C93.1937 254.154 92.9356 254.621 92.6278 254.99C92.3201 255.364 91.9626 255.641 91.5554 255.821C91.1529 256.001 90.6984 256.091 90.1918 256.091Z" fill="black"/>
<path d="M224.48 142.5C225.309 142.511 225.989 141.848 226 141.02L226.178 127.521C226.189 126.693 225.526 126.012 224.698 126.001C223.87 125.99 223.189 126.653 223.178 127.481L223.02 139.48L211.021 139.322C210.193 139.311 209.512 139.974 209.501 140.802C209.49 141.63 210.153 142.311 210.981 142.322L224.48 142.5ZM129.925 46.0466L223.425 142.047L225.575 139.953L132.075 43.9534L129.925 46.0466Z" fill="#00E0FF"/>
<path d="M207.985 164.711C208.102 163.891 207.531 163.131 206.711 163.015L193.345 161.116C192.525 160.999 191.766 161.57 191.649 162.39C191.533 163.21 192.103 163.97 192.923 164.086L204.804 165.774L203.116 177.655C202.999 178.475 203.57 179.234 204.39 179.351C205.21 179.467 205.97 178.897 206.086 178.077L207.985 164.711ZM102.901 244.199L207.401 165.699L205.599 163.301L101.099 241.801L102.901 244.199Z" fill="#FF0000"/>
<path d="M244.928 170.96C245.182 170.172 244.749 169.327 243.96 169.072L231.112 164.93C230.323 164.675 229.478 165.108 229.224 165.897C228.969 166.685 229.403 167.531 230.191 167.785L241.612 171.467L237.93 182.888C237.675 183.677 238.108 184.522 238.897 184.776C239.685 185.03 240.531 184.597 240.785 183.809L244.928 170.96ZM102.684 244.335L244.184 171.835L242.816 169.165L101.316 241.665L102.684 244.335Z" fill="#FF0000"/>
</svg>
